<svg width="47" height="47" viewBox="0 0 47 47" fill="none" xmlns="http://www.w3.org/2000/svg">
<path d="M10.5761 1.99997C7.02749 1.99997 3.89627 3.60656 2 6.06123V16.9986C3.89627 19.4514 7.02749 21.058 10.5761 21.058C12.2932 21.058 13.9093 20.6749 15.3406 20.0098V42.0217H21.058V11.529C21.058 6.26705 16.3659 1.99997 10.5761 1.99997Z" stroke="#CCCCCC" stroke-width="2.1" stroke-miterlimit="10" stroke-linecap="round" stroke-linejoin="round"/>
<path d="M12.4819 17.2464C14.0599 17.2464 15.3406 18.5271 15.3406 20.1051" stroke="#CCCCCC" stroke-width="2.1" stroke-miterlimit="10" stroke-linecap="round" stroke-linejoin="round"/>
<path d="M19.1522 45.8333H17.2464C16.1944 45.8333 15.3406 44.9795 15.3406 43.9275V42.0217H21.058V43.9275C21.058 44.9795 20.2042 45.8333 19.1522 45.8333Z" stroke="#CCCCCC" stroke-width="2.1" stroke-miterlimit="10" stroke-linecap="round" stroke-linejoin="round"/>
<path d="M7.24094 9.62314C6.45194 9.62314 5.8116 10.2635 5.8116 11.0525C5.8116 11.8415 6.45194 12.4818 7.24094 12.4818C8.02994 12.4818 8.67029 11.8415 8.67029 11.0525C8.67029 10.2635 8.02994 9.62314 7.24094 9.62314Z" fill="#CCCCCC"/>
<path d="M13.431 6.40616C14.9156 7.05985 16.0991 8.20714 16.7337 9.62124" stroke="#CCCCCC" stroke-width="2.1" stroke-miterlimit="10" stroke-linecap="round" stroke-linejoin="round"/>
<path d="M37.2573 1.99997C40.8059 1.99997 43.9371 3.60656 45.8334 6.06123V16.9986C43.9371 19.4514 40.8059 21.058 37.2573 21.058C35.5401 21.058 33.924 20.6749 32.4928 20.0098V42.0217H26.7754V11.529C26.7754 6.26705 31.4674 1.99997 37.2573 1.99997Z" stroke="#CCCCCC" stroke-width="2.1" stroke-miterlimit="10" stroke-linecap="round" stroke-linejoin="round"/>
<path d="M35.3515 17.2464C33.7735 17.2464 32.4928 18.5271 32.4928 20.1051" stroke="#CCCCCC" stroke-width="2.1" stroke-miterlimit="10" stroke-linecap="round" stroke-linejoin="round"/>
<path d="M28.6812 45.8333H30.587C31.639 45.8333 32.4928 44.9795 32.4928 43.9275V42.0217H26.7754V43.9275C26.7754 44.9795 27.6292 45.8333 28.6812 45.8333Z" stroke="#CCCCCC" stroke-width="2.1" stroke-miterlimit="10" stroke-linecap="round" stroke-linejoin="round"/>
<path d="M34.4024 6.40616C32.9178 7.05985 31.7343 8.20714 31.0996 9.62124" stroke="#CCCCCC" stroke-width="2.1" stroke-miterlimit="10" stroke-linecap="round" stroke-linejoin="round"/>
<path d="M40.5924 9.62314C39.8034 9.62314 39.1631 10.2635 39.1631 11.0525C39.1631 11.8415 39.8034 12.4818 40.5924 12.4818C41.3814 12.4818 42.0218 11.8415 42.0218 11.0525C42.0218 10.2635 41.3814 9.62314 40.5924 9.62314Z" fill="#CCCCCC"/>
</svg>
