<svg width="48" height="48" viewBox="0 0 48 48" fill="none" xmlns="http://www.w3.org/2000/svg">
<path d="M17 14C15.3431 14 14 15.3431 14 17V31C14 32.6569 15.3431 34 17 34H31.0227C32.6796 34 34.0227 32.6569 34.0227 31V17C34.0227 15.3431 32.6796 14 31.0227 14H17ZM32 35.9045V41C32 43.7614 29.7614 46 27 46H21C18.2386 46 16 43.7614 16 41V35.9C13.7178 35.4367 12 33.419 12 31V17C12 14.581 13.7178 12.5633 16 12.1V7C16 4.23858 18.2386 2 21 2H27C29.7614 2 32 4.23858 32 7V12.0955C34.2935 12.5499 36.0227 14.573 36.0227 17V31C36.0227 33.427 34.2935 35.4501 32 35.9045ZM30 36H18V41C18 42.6569 19.3431 44 21 44H27C28.6569 44 30 42.6569 30 41V36ZM18 12H30V7C30 5.34315 28.6569 4 27 4H21C19.3431 4 18 5.34315 18 7V12Z" fill="#CCCCCC"/>
</svg>
