<svg width="32" height="32" viewBox="0 0 32 32" fill="none" xmlns="http://www.w3.org/2000/svg">
<g opacity="0.2" clip-path="url(#clip0_1602_15183)">
<path fill-rule="evenodd" clip-rule="evenodd" d="M2 16C2 19.713 3.475 23.274 6.1005 25.8995C8.72601 28.525 12.287 30 16 30C19.713 30 23.274 28.525 25.8995 25.8995C28.525 23.274 30 19.713 30 16C30 12.287 28.525 8.72601 25.8995 6.1005C23.274 3.475 19.713 2 16 2C12.287 2 8.72601 3.475 6.1005 6.1005C3.475 8.72601 2 12.287 2 16ZM32 16C32 20.2435 30.3143 24.3131 27.3137 27.3137C24.3131 30.3143 20.2435 32 16 32C11.7565 32 7.68687 30.3143 4.68629 27.3137C1.68571 24.3131 0 20.2435 0 16C0 11.7565 1.68571 7.68687 4.68629 4.68629C7.68687 1.68571 11.7565 0 16 0C20.2435 0 24.3131 1.68571 27.3137 4.68629C30.3143 7.68687 32 11.7565 32 16ZM9 15C8.73478 15 8.48043 15.1054 8.29289 15.2929C8.10536 15.4804 8 15.7348 8 16C8 16.2652 8.10536 16.5196 8.29289 16.7071C8.48043 16.8946 8.73478 17 9 17H20.586L16.292 21.292C16.199 21.385 16.1253 21.4954 16.075 21.6168C16.0246 21.7383 15.9987 21.8685 15.9987 22C15.9987 22.1315 16.0246 22.2617 16.075 22.3832C16.1253 22.5046 16.199 22.615 16.292 22.708C16.385 22.801 16.4954 22.8747 16.6168 22.925C16.7383 22.9754 16.8685 23.0013 17 23.0013C17.1315 23.0013 17.2617 22.9754 17.3832 22.925C17.5046 22.8747 17.615 22.801 17.708 22.708L23.708 16.708C23.8011 16.6151 23.875 16.5048 23.9254 16.3833C23.9758 16.2618 24.0018 16.1315 24.0018 16C24.0018 15.8685 23.9758 15.7382 23.9254 15.6167C23.875 15.4952 23.8011 15.3849 23.708 15.292L17.708 9.292C17.615 9.19902 17.5046 9.12527 17.3832 9.07495C17.2617 9.02464 17.1315 8.99874 17 8.99874C16.8685 8.99874 16.7383 9.02464 16.6168 9.07495C16.4954 9.12527 16.385 9.19902 16.292 9.292C16.199 9.38498 16.1253 9.49535 16.075 9.61683C16.0246 9.73831 15.9987 9.86851 15.9987 10C15.9987 10.1315 16.0246 10.2617 16.075 10.3832C16.1253 10.5046 16.199 10.615 16.292 10.708L20.586 15H9Z" fill="white"/>
</g>
<defs>
<clipPath id="clip0_1602_15183">
<rect width="32" height="32" fill="white"/>
</clipPath>
</defs>
</svg>
