<svg width="40" height="40" viewBox="0 0 40 40" fill="none" xmlns="http://www.w3.org/2000/svg">
<path fill-rule="evenodd" clip-rule="evenodd" d="M7.84675 25.7333C9.79803 27.1039 12.1239 27.8406 14.5084 27.8433C15.2432 29.8442 16.5121 31.6056 18.1773 32.9361C19.8426 34.2667 21.8405 35.1156 23.9542 35.3907C26.0679 35.6658 28.2166 35.3566 30.167 34.4966C32.1173 33.6366 33.7948 32.2588 35.0173 30.5126C36.2397 28.7665 36.9605 26.7188 37.1012 24.5919C37.2419 22.465 36.7973 20.3403 35.8156 18.4483C34.8338 16.5563 33.3525 14.9694 31.5325 13.8599C29.7125 12.7504 27.6233 12.1608 25.4917 12.155C24.8604 10.4364 23.8334 8.89048 22.4938 7.64235C21.1542 6.39422 19.5397 5.47889 17.7808 4.9704C16.0219 4.46191 14.168 4.37453 12.3691 4.71533C10.5702 5.05614 8.87669 5.81556 7.42567 6.93216C5.97464 8.04877 4.80679 9.49122 4.01657 11.1428C3.22635 12.7945 2.83595 14.6089 2.87695 16.4393C2.91794 18.2698 3.38919 20.0649 4.25256 21.6795C5.11593 23.2941 6.34719 24.6828 7.84675 25.7333ZM9.75842 23C10.9556 23.8412 12.354 24.3506 13.8117 24.4767C13.6614 21.8618 14.399 19.2729 15.9051 17.13C17.404 14.9823 19.5848 13.4042 22.0934 12.6517C21.5528 11.4938 20.753 10.4757 19.7561 9.67623C18.7592 8.87675 17.5917 8.31727 16.344 8.04103C15.0963 7.76479 13.8018 7.7792 12.5606 8.08315C11.3193 8.38709 10.1646 8.97243 9.18575 9.79391C8.20685 10.6154 7.43 11.651 6.91526 12.8206C6.40051 13.9903 6.16166 15.2627 6.21718 16.5394C6.2727 17.8161 6.62109 19.0629 7.23543 20.1835C7.84976 21.304 8.71358 22.2683 9.76008 23.0017L9.75842 23ZM30.2417 16.995C29.0443 16.1545 27.646 15.6456 26.1884 15.52C26.3388 18.1349 25.6011 20.7238 24.0951 22.8667C22.5961 25.0144 20.4154 26.5925 17.9067 27.345C18.4474 28.5029 19.2471 29.521 20.2441 30.3204C21.241 31.1199 22.4084 31.6794 23.6561 31.9556C24.9038 32.2319 26.1983 32.2175 27.4396 31.9135C28.6808 31.6096 29.8355 31.0242 30.8144 30.2028C31.7933 29.3813 32.5702 28.3457 33.0849 27.176C33.5997 26.0064 33.8385 24.734 33.783 23.4573C33.7275 22.1806 33.3791 20.9338 32.7647 19.8132C32.1504 18.6927 31.2866 17.7284 30.2401 16.995H30.2417Z" fill="#706E6E"/>
</svg>
