<svg width="48" height="48" viewBox="0 0 48 48" fill="none" xmlns="http://www.w3.org/2000/svg">
<path d="M9 38H39C40.6569 38 42 36.6569 42 35V12.9773C42 11.3204 40.6569 9.97728 39 9.97728H9C7.34315 9.97728 6 11.3204 6 12.9773V35C6 36.6569 7.34315 38 9 38ZM9 40C6.23858 40 4 37.7614 4 35V12.9773C4 10.2159 6.23858 7.97728 9 7.97728H39C41.7614 7.97728 44 10.2159 44 12.9773V35C44 37.7614 41.7614 40 39 40H9ZM38 26C36.896 26 36 25.104 36 24C36 22.896 36.896 22 38 22C39.104 22 40 22.896 40 24C40 25.104 39.104 26 38 26ZM10 27C10 27.5523 9.55228 28 9 28C8.44772 28 8 27.5523 8 27V21C8 20.4477 8.44772 20 9 20C9.55228 20 10 20.4477 10 21V27Z" fill="#CCCCCC"/>
</svg>
