<svg width="48" height="48" viewBox="0 0 48 48" fill="none" xmlns="http://www.w3.org/2000/svg">
<path d="M17 6C15.3431 6 14 7.34315 14 9V39C14 40.6569 15.3431 42 17 42H31.0227C32.6796 42 34.0227 40.6569 34.0227 39V9C34.0227 7.34315 32.6796 6 31.0227 6H31C30.4477 6 30 6.44772 30 7C30 8.65685 28.6569 10 27 10H21C19.3431 10 18 8.65685 18 7C18 6.44772 17.5523 6 17 6ZM19.8293 6C19.9398 6.31278 20 6.64936 20 7C20 7.55228 20.4477 8 21 8H27C27.5523 8 28 7.55228 28 7C28 6.64936 28.0602 6.31278 28.1707 6H19.8293ZM12 9C12 6.23858 14.2386 4 17 4H31.0227C33.7841 4 36.0227 6.23858 36.0227 9V39C36.0227 41.7614 33.7841 44 31.0227 44H17C14.2386 44 12 41.7614 12 39V9Z" fill="#CCCCCC"/>
</svg>
