<svg width="48" height="48" viewBox="0 0 48 48" fill="none" xmlns="http://www.w3.org/2000/svg">
<path d="M42.12 34.8047V11.7188C42.12 10.9678 41.5116 10.3594 40.7606 10.3594H7.22156C6.47109 10.3594 5.86219 10.9678 5.86219 11.7188V34.8047H0.492188V36.3281C0.6675 36.532 1.53984 37.162 3.95297 37.1095L43.5155 37.0936C43.5155 37.0936 46.6036 37.1381 47.6719 36.3281V34.8047H42.12ZM23.9911 11.3592C24.098 11.3592 24.1847 11.4459 24.1847 11.5528C24.1847 11.6597 24.0979 11.7459 23.9911 11.7459C23.8842 11.7459 23.798 11.6597 23.798 11.5528C23.798 11.4459 23.8842 11.3592 23.9911 11.3592ZM7.84266 12.4219H40.1395V32.7656H7.84266V12.4219ZM27.4688 35.0977C27.4688 35.3306 27.2798 35.5195 27.0469 35.5195H20.6719C20.4389 35.5195 20.25 35.3306 20.25 35.0977V34.8281H27.4688V35.0977ZM44.8538 35.6133H43.2244C43.1953 35.6133 43.1719 35.5898 43.1719 35.5603C43.1719 35.5312 43.1953 35.5078 43.2244 35.5078H44.8538C44.8828 35.5078 44.9062 35.5312 44.9062 35.5603C44.9062 35.5898 44.8828 35.6133 44.8538 35.6133Z" fill="#CCCCCC"/>
</svg>
