<svg width="30" height="36" viewBox="0 0 30 36" fill="none" xmlns="http://www.w3.org/2000/svg">
<path d="M28.9314 27.5863C28.4202 28.7884 27.7886 29.9348 27.0464 31.0075C26.055 32.436 25.2409 33.4231 24.6169 33.9725C23.6476 34.8702 22.6064 35.3321 21.4931 35.3582C20.6956 35.3582 19.7319 35.1291 18.6094 34.6635C17.4833 34.1997 16.4494 33.9725 15.5023 33.9725C14.5109 33.9725 13.4475 34.1997 12.3084 34.6635C11.1712 35.1291 10.2518 35.3731 9.54841 35.3954C8.48317 35.442 7.41792 34.9689 6.35637 33.9725C5.67883 33.3765 4.83143 32.3522 3.81419 30.9032C2.72495 29.3593 1.82956 27.562 1.12801 25.519C0.376619 23.3083 0 21.1702 0 19.0992C0 16.7283 0.507698 14.6815 1.52494 12.9681C2.29433 11.6224 3.39428 10.4993 4.71882 9.70696C6.02493 8.91668 7.51593 8.49115 9.03886 8.47404C9.8881 8.47404 11.0013 8.7385 12.3804 9.25998C13.7595 9.78146 14.6457 10.0459 15.0315 10.0459C15.3232 10.0459 16.3036 9.7349 17.9725 9.11844C19.5473 8.54667 20.8765 8.31014 21.9658 8.40327C24.9196 8.64352 27.1369 9.81685 28.612 11.9326C25.972 13.5473 24.6667 15.8064 24.6926 18.7062C24.7147 20.9653 25.5289 22.8445 27.124 24.3363C27.8292 25.0171 28.652 25.5618 29.5517 25.9436C29.356 26.5154 29.1492 27.0611 28.9314 27.5863V27.5863ZM22.1615 0.709585C22.1615 2.47889 21.519 4.13272 20.2433 5.66177C18.6999 7.4795 16.8353 8.53177 14.8137 8.36602C14.7873 8.14353 14.7743 7.91962 14.7749 7.69554C14.7749 5.99515 15.506 4.17742 16.8113 2.68934C17.4611 1.93692 18.2882 1.30929 19.2907 0.810155C20.2913 0.318475 21.2365 0.0465606 22.1264 0C22.1504 0.238391 22.1615 0.474919 22.1615 0.709585V0.709585Z" fill="#0071E4"/>
</svg>
