<svg width="24" height="24" viewBox="0 0 24 24" fill="none" xmlns="http://www.w3.org/2000/svg">
<path fill-rule="evenodd" clip-rule="evenodd" d="M2.40002 9.59998C2.40002 9.28172 2.52645 8.97649 2.7515 8.75145C2.97654 8.5264 3.28176 8.39998 3.60002 8.39998H15.9696C16.2879 8.39998 16.5931 8.5264 16.8182 8.75145C17.0432 8.97649 17.1696 9.28172 17.1696 9.59998C17.1696 9.91824 17.0432 10.2235 16.8182 10.4485C16.5931 10.6735 16.2879 10.8 15.9696 10.8H3.60002C3.28176 10.8 2.97654 10.6735 2.7515 10.4485C2.52645 10.2235 2.40002 9.91824 2.40002 9.59998V9.59998ZM2.40002 4.79998C2.40002 4.48172 2.52645 4.17649 2.7515 3.95145C2.97654 3.7264 3.28176 3.59998 3.60002 3.59998H20.4C20.7183 3.59998 21.0235 3.7264 21.2486 3.95145C21.4736 4.17649 21.6 4.48172 21.6 4.79998C21.6 5.11824 21.4736 5.42346 21.2486 5.6485C21.0235 5.87355 20.7183 5.99998 20.4 5.99998H3.60002C3.28176 5.99998 2.97654 5.87355 2.7515 5.6485C2.52645 5.42346 2.40002 5.11824 2.40002 4.79998V4.79998ZM2.40002 14.4C2.40002 14.0817 2.52645 13.7765 2.7515 13.5514C2.97654 13.3264 3.28176 13.2 3.60002 13.2H20.4C20.7183 13.2 21.0235 13.3264 21.2486 13.5514C21.4736 13.7765 21.6 14.0817 21.6 14.4C21.6 14.7182 21.4736 15.0235 21.2486 15.2485C21.0235 15.4735 20.7183 15.6 20.4 15.6H3.60002C3.28176 15.6 2.97654 15.4735 2.7515 15.2485C2.52645 15.0235 2.40002 14.7182 2.40002 14.4V14.4ZM2.40002 19.2C2.40002 18.8817 2.52645 18.5765 2.7515 18.3514C2.97654 18.1264 3.28176 18 3.60002 18H15.9696C16.2879 18 16.5931 18.1264 16.8182 18.3514C17.0432 18.5765 17.1696 18.8817 17.1696 19.2C17.1696 19.5182 17.0432 19.8235 16.8182 20.0485C16.5931 20.2735 16.2879 20.4 15.9696 20.4H3.60002C3.28176 20.4 2.97654 20.2735 2.7515 20.0485C2.52645 19.8235 2.40002 19.5182 2.40002 19.2V19.2Z" fill="#52D116"/>
</svg>
