<svg width="32" height="32" viewBox="0 0 32 32" fill="none" xmlns="http://www.w3.org/2000/svg">
<rect width="32" height="32" rx="6.09524" fill="#26A4E4"/>
<path d="M7.73168 15.0932C11.7302 13.3515 14.396 12.2032 15.7288 11.6484C19.5388 10.0642 20.3295 9.78902 20.846 9.7797C20.9595 9.77788 21.2124 9.80595 21.3774 9.93934C21.5145 10.0518 21.5531 10.204 21.5724 10.3108C21.5895 10.4175 21.6131 10.6607 21.5938 10.8506C21.3881 13.0192 20.4945 18.2816 20.0402 20.7105C19.8495 21.7382 19.4702 22.0828 19.1038 22.1164C18.3067 22.1897 17.7024 21.5902 16.931 21.0847C15.7245 20.2933 15.0431 19.8009 13.871 19.0288C12.5167 18.1365 13.3952 17.646 14.1667 16.8446C14.3681 16.6348 17.8781 13.443 17.9445 13.1535C17.9531 13.1173 17.9617 12.9823 17.8802 12.9112C17.801 12.8398 17.6831 12.8642 17.5974 12.8835C17.4752 12.9109 15.5488 14.1855 11.8117 16.707C11.2652 17.0829 10.7702 17.2661 10.3245 17.2564C9.83596 17.2459 8.89311 16.9796 8.19239 16.752C7.33525 16.4728 6.65168 16.3252 6.71168 15.8509C6.74168 15.6041 7.08239 15.3514 7.73168 15.0932Z" fill="white"/>
</svg>
