<svg width="32" height="32" viewBox="0 0 32 32" fill="none" xmlns="http://www.w3.org/2000/svg">
<rect width="32" height="32" rx="6.09524" fill="#2CB742"/>
<path d="M20.0358 17.331C19.7763 17.1976 18.4834 16.5643 18.2429 16.4786C18.0025 16.3881 17.8263 16.3452 17.6525 16.6119C17.4763 16.8762 16.9763 17.4643 16.8191 17.6429C16.6668 17.8191 16.512 17.8405 16.2525 17.7095C14.7096 16.9381 13.6977 16.3333 12.681 14.5881C12.412 14.1238 12.9501 14.1571 13.4525 13.1548C13.5382 12.9786 13.4953 12.8286 13.4287 12.6952C13.362 12.5619 12.8382 11.2714 12.6191 10.7452C12.4072 10.2333 12.1882 10.3048 12.0287 10.2952C11.8763 10.2857 11.7025 10.2857 11.5263 10.2857C11.3501 10.2857 11.0668 10.3524 10.8263 10.6119C10.5858 10.8762 9.90723 11.5119 9.90723 12.8024C9.90723 14.0929 10.8477 15.3429 10.9763 15.5191C11.1096 15.6952 12.8263 18.3429 15.462 19.4833C17.1287 20.2024 17.781 20.2643 18.6144 20.1405C19.1215 20.0643 20.1667 19.5071 20.3834 18.8905C20.6001 18.2762 20.6001 17.75 20.5358 17.6405C20.4715 17.5238 20.2953 17.4571 20.0358 17.331Z" fill="white"/>
<path d="M25.0767 11.1048C24.5386 9.82619 23.7672 8.67857 22.7838 7.69286C21.8005 6.70952 20.6529 5.93571 19.3719 5.4C18.0624 4.85 16.6719 4.57143 15.2386 4.57143H15.191C13.7481 4.57857 12.3505 4.86428 11.0362 5.42619C9.76715 5.96905 8.62906 6.74047 7.65525 7.72381C6.68144 8.70714 5.91715 9.85 5.38858 11.1238C4.84096 12.4429 4.56477 13.8452 4.57191 15.2881C4.57906 16.9405 4.97429 18.581 5.71477 20.0476V23.6667C5.71477 24.2714 6.20525 24.7619 6.81001 24.7619H10.4314C11.8981 25.5024 13.5386 25.8976 15.191 25.9048H15.241C16.6672 25.9048 18.0505 25.6286 19.3529 25.0881C20.6267 24.5571 21.7719 23.7952 22.7529 22.8214C23.7362 21.8476 24.51 20.7095 25.0505 19.4405C25.6124 18.1262 25.8981 16.7286 25.9052 15.2857C25.9124 13.8357 25.6314 12.4286 25.0767 11.1048ZM21.4791 21.5333C19.81 23.1857 17.5957 24.0952 15.2386 24.0952H15.1981C13.7624 24.0881 12.3362 23.731 11.0767 23.0595L10.8767 22.9524H7.52429V19.6L7.41715 19.4C6.74572 18.1405 6.38858 16.7143 6.38144 15.2786C6.37191 12.9048 7.27906 10.6762 8.94334 8.99762C10.6052 7.31905 12.8267 6.39047 15.2005 6.38095H15.241C16.4314 6.38095 17.5862 6.6119 18.6743 7.06905C19.7362 7.51428 20.6886 8.15476 21.5076 8.97381C22.3243 9.79047 22.9671 10.7452 23.4124 11.8071C23.8743 12.9071 24.1052 14.0738 24.1005 15.2786C24.0862 17.65 23.1552 19.8714 21.4791 21.5333Z" fill="white"/>
</svg>
